<svg width="14" height="14" viewBox="0 0 14 14" fill="none" xmlns="http://www.w3.org/2000/svg">
<path d="M7 0.538462C7.78545 0.538462 8.53873 0.85048 9.09412 1.40588C9.64952 1.96127 9.96154 2.71455 9.96154 3.5C9.96154 4.28545 9.64952 5.03873 9.09412 5.59412C8.53873 6.14952 7.78545 6.46154 7 6.46154C6.21455 6.46154 5.46127 6.14952 4.90588 5.59412C4.35048 5.03873 4.03846 4.28545 4.03846 3.5C4.03846 2.71455 4.35048 1.96127 4.90588 1.40588C5.46127 0.85048 6.21455 0.538462 7 0.538462ZM7 9.28846C8.86835 9.28846 10.5324 9.66793 11.7095 10.2565C12.9186 10.861 13.4615 11.5968 13.4615 12.25V13.4615H0.538462V12.25C0.538462 11.5968 1.08136 10.861 2.29049 10.2565C3.46756 9.66793 5.13165 9.28846 7 9.28846Z" fill="white" stroke="white" stroke-width="1.07692"/>
</svg>
