<svg width="7" height="4" viewBox="0 0 7 4" fill="none" xmlns="http://www.w3.org/2000/svg">
<mask id="path-1-inside-1_1054_645" fill="white">
<path d="M6.91163 3.71429C6.91163 3.22652 6.82756 2.74353 6.66424 2.29289C6.50091 1.84225 6.26151 1.43279 5.95972 1.08789C5.65793 0.742986 5.29965 0.469394 4.90535 0.282733C4.51104 0.0960729 4.08842 -2.1321e-08 3.66162 0C3.23483 2.1321e-08 2.81221 0.096073 2.4179 0.282734C2.02359 0.469394 1.66532 0.742987 1.36352 1.08789C1.06173 1.43279 0.822341 1.84225 0.659013 2.29289C0.495685 2.74353 0.411621 3.22652 0.411621 3.71429H1.22529C1.22529 3.34864 1.2883 2.98657 1.41074 2.64875C1.53318 2.31093 1.71264 2.00398 1.93887 1.74543C2.16511 1.48688 2.43369 1.28178 2.72928 1.14185C3.02487 1.00192 3.34168 0.929902 3.66162 0.929902C3.98157 0.929902 4.29838 1.00192 4.59397 1.14185C4.88956 1.28178 5.15814 1.48688 5.38438 1.74543C5.61061 2.00398 5.79007 2.31093 5.91251 2.64875C6.03495 2.98657 6.09796 3.34864 6.09796 3.71429H6.91163Z"/>
</mask>
<path d="M6.91163 3.71429C6.91163 3.22652 6.82756 2.74353 6.66424 2.29289C6.50091 1.84225 6.26151 1.43279 5.95972 1.08789C5.65793 0.742986 5.29965 0.469394 4.90535 0.282733C4.51104 0.0960729 4.08842 -2.1321e-08 3.66162 0C3.23483 2.1321e-08 2.81221 0.096073 2.4179 0.282734C2.02359 0.469394 1.66532 0.742987 1.36352 1.08789C1.06173 1.43279 0.822341 1.84225 0.659013 2.29289C0.495685 2.74353 0.411621 3.22652 0.411621 3.71429H1.22529C1.22529 3.34864 1.2883 2.98657 1.41074 2.64875C1.53318 2.31093 1.71264 2.00398 1.93887 1.74543C2.16511 1.48688 2.43369 1.28178 2.72928 1.14185C3.02487 1.00192 3.34168 0.929902 3.66162 0.929902C3.98157 0.929902 4.29838 1.00192 4.59397 1.14185C4.88956 1.28178 5.15814 1.48688 5.38438 1.74543C5.61061 2.00398 5.79007 2.31093 5.91251 2.64875C6.03495 2.98657 6.09796 3.34864 6.09796 3.71429H6.91163Z" fill="white" stroke="white" stroke-width="1.46914" mask="url(#path-1-inside-1_1054_645)"/>
</svg>
