<svg width="966" height="1003" viewBox="0 0 966 1003" fill="none" xmlns="http://www.w3.org/2000/svg">
<path d="M965.491 451.846L825.323 249.424L750.962 254.939L783.937 186.293L643.996 -18.6463L394.887 0.895033L362.254 68.8298L319.754 7.0901L74.2038 24.2277L-169.471 531.495L-33.0635 733.775L46.2723 726.621L12.1013 797.756L153.157 1002.97L397.621 983.825L397.984 983.999L433.147 910.799L478.593 979.384L721.824 959.47L965.637 451.916L965.491 451.846ZM121.644 230.345L-12.4439 509.482L-67.9694 513.803L90.654 183.59L121.644 230.345ZM686.174 520.177L655.938 475.009L679.243 426.494L709.492 472.192L686.174 520.177ZM401.726 485.881L280.804 306.627L336.741 301.452L414.035 415.013L426.586 433.388L583.806 421.359L615.336 468.288L401.726 485.881ZM218.506 236.777L273.013 231.793L249.709 280.306L195.509 284.651L218.506 236.777ZM678.191 251.764L701.154 203.96L755.589 198.941L732.284 247.456L678.191 251.764ZM659.305 244.53L582.983 132.661L607.074 82.5108L682.911 195.022L659.305 244.53ZM448.621 412.367L573.586 152.224L601.895 194.364L499.074 408.41L448.621 412.367ZM555.312 143.533L429.903 404.601L396.782 355.42L496.22 148.416L555.312 143.533ZM588.8 73.8201L564.88 123.615L427.745 134.259L451.323 85.1755L588.8 73.8201ZM433.049 76.485L410.086 124.288L379.465 79.5489L402.872 30.8209L433.049 76.485ZM316.165 141.595L251.487 146.421L219.789 100.027L340.331 91.6555L316.165 141.595ZM329.441 160.316L363.51 89.3945L407.512 155.795L472.531 150.257L383.276 336.064L346.926 281.919L268.1 287.83L301.11 219.112L264.006 164.867L329.441 160.316ZM671.223 396.64L637.6 466.636L593.399 401.017L522.225 406.575L614.863 213.726L654.984 273.185L733.928 266.106L699.518 337.739L736.685 391.664L671.223 396.64ZM759.305 390.009L722.682 336.434L746.601 286.639L815.408 385.968L759.305 390.009ZM699.24 184.393L609.449 53.2718L449.449 65.7145L417.312 18.934L635.031 0.948165L755.874 179.992L699.24 184.393ZM192.861 82.2756L185.75 82.8003L273.324 212.418L216.341 217.176L97.4169 42.2942L310.875 27.427L340.48 71.5028L192.861 82.2756ZM172.374 306.107L247.995 299.269L216.284 365.283L256.427 424.14L189.211 429.06L189.366 429.661L189.005 429.488L156.748 496.639L113.177 431.935L44.8194 437.008L134.826 249.637L172.374 306.107ZM75.6995 734.716L129.497 729.916L167.879 785.388L143.344 836.464L75.6995 734.716ZM103.336 452.423L134.833 499.421L10.1876 508.36L34.7229 457.284L103.336 452.423ZM276.221 559.107L221.369 563.139L246.007 511.85L300.79 507.962L276.221 559.107ZM227.031 505.362L204.034 553.236L173.515 508.283L196.819 459.77L227.031 505.362ZM134.511 519.751L110.591 569.547L46.4119 574.262L14.7861 527.903L134.511 519.751ZM123.765 588.481L157.525 518.201L201.527 584.601L266.137 579.917L177.291 764.87L139.857 710.204L62.3927 716.242L95.7784 646.742L59.2584 592.953L123.765 588.481ZM242.101 492.903L211.319 447.385L269.178 443.398L300.081 487.923L242.101 492.903ZM-8.04507 528.142L67.7523 640.548L10.9714 644.702L-65.207 532.902L-8.04507 528.142ZM12.8549 664.518L67.3646 659.533L44.0594 708.048L-10.1423 712.392L12.8549 664.518ZM146.781 875.673L152.18 864.433L328.606 497.161L239.024 364.302L262.706 315.004L385.517 495.52L385.878 495.693L156.624 972.941L34.9671 795.958L59.1598 745.595L146.781 875.673ZM404.298 504.453L614.213 488.06L590.532 537.357L430.802 550.717L430.439 550.543L258.114 909.279L248.546 929.197L270.161 927.413L271.463 928.038L271.839 927.256L407.915 915.664L384.303 964.818L176.003 979.888L404.335 504.559L404.298 504.453ZM612.601 696.706L651.797 753.268L627.227 804.415L556.261 701.423L612.601 696.706ZM465.854 824.166L432.571 893.451L390.076 830.402L316.147 835.949L408.58 643.527L449.214 701.918L528.156 694.838L493.984 765.975L530.676 819.407L465.854 824.166ZM526.369 676.119L472.132 680.358L495.129 632.483L549.673 627.605L526.369 676.119ZM453.109 673.408L418.416 622.862L442.951 571.786L477.781 622.05L453.109 673.408ZM306.334 856.188L380.598 851.063L410.722 895.912L281.799 907.262L306.334 856.188ZM553.428 817.292L516.997 764.247L540.917 714.451L609.281 813.216L553.428 817.292ZM495.29 612.862L463.958 566.818L518.519 562.649L550.387 608.686L495.29 612.862ZM473.873 854.02L504.122 899.718L481.16 947.52L450.568 902.535L473.873 854.02ZM520.376 888.878L488.45 841.848L623.603 830.69L655.261 878.467L520.376 888.878ZM672 868.471L640.634 822.498L774.722 543.362L830.452 538.615L672 868.471ZM661.57 732.924L622.766 676.286L545.387 682.892L577.919 615.17L541.208 560.851L604.24 556.11L639.094 483.553L684.211 551.715L751.832 545.761L661.57 732.924ZM725.745 461.352L693.785 414.394L849.774 401.776L845.699 395.789L761.736 273.861L814.646 269.422L936.458 445.342L725.745 461.352ZM-146.861 530.975L82.5309 53.44L200.156 227.874L176.509 277.1L87.4651 144.238L77.8972 164.155L-94.4625 522.963L-5.21401 655.4L-28.9286 704.767L-147.074 531.047L-146.861 530.975ZM498.898 957.882L522.614 908.512L681.811 895.336L854.103 536.669L863.671 516.751L704.302 530.284L727.949 481.058L937.631 463.852L708.204 941.458L498.898 957.882Z" fill="#232323"/>
</svg>
