<svg width="16" height="14" viewBox="0 0 16 14" fill="none" xmlns="http://www.w3.org/2000/svg">
<path d="M6.17561e-08 4.2005C-9.56478e-05 3.64237 0.111057 3.08982 0.326963 2.57515C0.542869 2.06047 0.859196 1.59399 1.25746 1.20297C1.65572 0.811949 2.12792 0.504234 2.64648 0.297808C3.16503 0.0913814 3.71952 -0.00961549 4.27756 0.000720242C4.93783 -0.00278618 5.51534 0.0506591 6.19467 0.402243C6.97466 0.80592 7.3375 1.50755 7.77734 2C8.21719 1.50755 8.58007 0.805919 9.36008 0.402243C10.0394 0.0506678 10.6169 -0.00278618 11.2772 0.000720242C11.8352 -0.00961549 12.3897 0.0913814 12.9083 0.297808C13.4268 0.504234 13.899 0.811949 14.2973 1.20297C14.6956 1.59399 15.0119 2.06047 15.2278 2.57515C15.4437 3.08982 15.5548 3.64237 15.5548 4.2005C15.5548 8.36607 10.5936 11.5112 7.77738 14C4.96741 11.4902 6.17561e-08 8.36918 6.17561e-08 4.2005Z" fill="#FBFBFB"/>
</svg>
