<svg width="24" height="22" viewBox="0 0 24 22" fill="none" xmlns="http://www.w3.org/2000/svg">
<path d="M9.52857e-08 6.48111C-0.000147578 5.61995 0.171355 4.7674 0.504483 3.97329C0.837612 3.17917 1.32568 2.45942 1.94018 1.85611C2.55467 1.25279 3.28325 0.778002 4.08334 0.459499C4.88344 0.140996 5.73899 -0.0148361 6.6 0.00111129C7.61875 -0.00429891 8.50981 0.0781638 9.55799 0.620636C10.7615 1.24348 11.3213 2.32606 11.9999 3.08587C12.6786 2.32606 13.2385 1.24348 14.442 0.620636C15.4902 0.0781772 16.3812 -0.00429891 17.4 0.00111129C18.261 -0.0148361 19.1166 0.140996 19.9167 0.459499C20.7167 0.778002 21.4453 1.25279 22.0598 1.85611C22.6743 2.45942 23.1624 3.17917 23.4955 3.97329C23.8286 4.7674 24.0001 5.61995 24 6.48111C24 12.9083 16.3452 17.7611 12 21.6011C7.6644 17.7287 9.52857e-08 12.9131 9.52857e-08 6.48111Z" fill="#FBFBFB"/>
</svg>
