<svg width="26" height="30" viewBox="0 0 26 30" fill="none" xmlns="http://www.w3.org/2000/svg">
<path d="M22.3514 8.58069H3.64864C3.05168 8.58069 2.55528 9.04013 2.50919 9.63531L1.09533 27.8936C1.04392 28.5576 1.56882 29.1247 2.23478 29.1247H23.7652C24.4312 29.1247 24.9561 28.5576 24.9047 27.8936L23.4908 9.63531C23.4447 9.04013 22.9483 8.58069 22.3514 8.58069Z" fill="white" stroke="white" stroke-width="1.14286"/>
<mask id="path-2-inside-1_289_350" fill="white">
<path d="M19.7226 8.32141C19.7226 7.22862 19.5343 6.14654 19.1684 5.13694C18.8025 4.12734 18.2661 3.21 17.59 2.43728C16.9139 1.66457 16.1112 1.05162 15.2278 0.633429C14.3444 0.215239 13.3976 -4.7767e-08 12.4414 0C11.4852 4.77671e-08 10.5384 0.21524 9.65498 0.63343C8.77158 1.05162 7.9689 1.66457 7.29278 2.43728C6.61665 3.21 6.08032 4.12734 5.71441 5.13694C5.34849 6.14654 5.16016 7.22863 5.16016 8.32141H6.98307C6.98307 7.50221 7.12425 6.69104 7.39856 5.9342C7.67287 5.17736 8.07492 4.48968 8.58177 3.91042C9.08863 3.33116 9.69035 2.87167 10.3526 2.55818C11.0148 2.24468 11.7246 2.08333 12.4414 2.08333C13.1582 2.08333 13.868 2.24468 14.5302 2.55818C15.1924 2.87167 15.7941 3.33116 16.301 3.91042C16.8079 4.48968 17.2099 5.17736 17.4842 5.9342C17.7585 6.69104 17.8997 7.50221 17.8997 8.32141H19.7226Z"/>
</mask>
<path d="M19.7226 8.32141C19.7226 7.22862 19.5343 6.14654 19.1684 5.13694C18.8025 4.12734 18.2661 3.21 17.59 2.43728C16.9139 1.66457 16.1112 1.05162 15.2278 0.633429C14.3444 0.215239 13.3976 -4.7767e-08 12.4414 0C11.4852 4.77671e-08 10.5384 0.21524 9.65498 0.63343C8.77158 1.05162 7.9689 1.66457 7.29278 2.43728C6.61665 3.21 6.08032 4.12734 5.71441 5.13694C5.34849 6.14654 5.16016 7.22863 5.16016 8.32141H6.98307C6.98307 7.50221 7.12425 6.69104 7.39856 5.9342C7.67287 5.17736 8.07492 4.48968 8.58177 3.91042C9.08863 3.33116 9.69035 2.87167 10.3526 2.55818C11.0148 2.24468 11.7246 2.08333 12.4414 2.08333C13.1582 2.08333 13.868 2.24468 14.5302 2.55818C15.1924 2.87167 15.7941 3.33116 16.301 3.91042C16.8079 4.48968 17.2099 5.17736 17.4842 5.9342C17.7585 6.69104 17.8997 7.50221 17.8997 8.32141H19.7226Z" fill="white" stroke="white" stroke-width="1.80817" mask="url(#path-2-inside-1_289_350)"/>
</svg>
