<svg width="53" height="60" viewBox="0 0 53 60" fill="none" xmlns="http://www.w3.org/2000/svg">
<path d="M52.3319 15.0814L41.0035 8.63529L37.5816 10.603V6.57151L26.2063 0L14.7674 6.64252V10.6322L11.3242 8.66035L0 15.1066V44.8976L11.1457 51.4232L14.7674 49.2633V53.441L26.2021 60L37.4285 53.4829H37.4498V49.1839L41.1905 51.4149L52.3404 44.8893V15.0814H52.3319ZM6.98837 23.8546V40.2479L4.43787 41.7268V22.3339L6.98837 23.8546ZM40.5698 24.7445L38.0917 23.2823V20.4331L40.5826 21.9203L40.5698 24.7445ZM26.2106 29.6281L16.3316 23.8463L18.8821 22.3172L25.1734 25.9643L26.1936 26.5534L33.42 22.3757L36.0003 23.8923L26.2106 29.6281ZM11.7578 21.9412L14.2445 20.454V23.3031L11.7578 24.7528V21.9412ZM34.0363 12.1195V9.31208L36.5188 7.82482V10.674L34.0363 12.1195ZM32.9694 12.2072L26.7632 8.61858V5.67331L32.9609 9.30371L32.9694 12.2072ZM26.7632 25.0453V9.76744L29.08 11.1294V23.7L26.7632 25.0453ZM25.692 9.77163V25.1037L22.9842 23.5162V11.3591L25.692 9.77163ZM25.692 5.67748V8.60187L19.3923 12.2532V9.37056L25.692 5.67748ZM18.3211 9.37474V12.1821L15.8344 10.7492V7.88749L18.3211 9.37474ZM14.2361 15.1609L11.2604 16.8737L8.68444 15.3864L14.2445 12.2239L14.2361 15.1609ZM15.2987 15.7499V11.5847L18.9204 13.7446L21.896 11.99V22.9021L18.9204 21.1517L15.2945 23.2406V19.2049L12.2806 17.4669L15.2987 15.7499ZM37.0247 19.1923V23.3031L33.4114 21.1851L30.1426 23.0817V11.756L33.42 13.6736L37.0247 11.5263V15.7331L40.0343 17.4544L37.0247 19.1923ZM41.0757 16.8569L38.1001 15.1399V12.2156L43.6602 15.3781L41.0757 16.8569ZM33.4965 8.42223L26.2063 4.22364L18.8567 8.48489L16.2509 6.98928L26.2277 1.14051L36.098 6.91408L33.4965 8.42223ZM6.9926 15.1566L6.6653 15.3447L13.8152 19.5223L11.2052 21.0555L1.52179 15.4366L11.3667 9.83428L13.7897 11.2589L6.9926 15.1566ZM11.1457 26.3069L14.5974 24.2473V28.1242L17.862 30.0125L14.7674 31.788L14.7886 31.8131H14.7674V35.7568L11.2052 33.668L8.05957 35.477V24.473L11.1457 26.3069ZM16.3571 48.9751L18.8142 47.5128L21.9172 49.28V52.2797L16.3571 48.9751ZM11.2052 34.8712L13.7854 36.3919L8.04257 39.6756V36.676L11.2052 34.8712ZM21.9003 35.9991L19.3753 37.4488V34.4367L21.9003 32.9954V35.9991ZM18.3211 34.562V37.3736L15.8344 35.9281V33.079L18.3211 34.562ZM14.2361 37.3694V40.2938L11.2817 41.9899L8.70995 40.5027L14.2361 37.3694ZM15.2987 40.8954V36.7679L18.9204 38.9277L21.896 37.2232V48.0853L18.8567 46.3348L15.2987 48.3986V44.3169L12.3231 42.5874L15.2987 40.8954ZM18.7546 33.6221L16.2424 32.1557L18.9119 30.6392L21.4071 32.0554L18.7546 33.6221ZM7.62599 41.0374L13.8194 44.6637L11.2052 46.1635L5.00747 42.5748L7.62599 41.0374ZM11.7493 47.0659L14.2361 45.5786V48.4278L11.7493 49.8775V47.0659ZM22.98 54.0719V53.4117V31.8424H22.9587H22.98L15.66 27.5561V24.6609L25.658 30.4596H25.6792V58.4876L15.8173 52.831V49.8733L22.98 54.0719ZM26.759 30.4554L36.3998 24.8614V27.7566L29.0842 32.0554H29.0629V53.1235V54.2932L30.0534 53.7126H30.1298V53.6667L36.3573 49.9944V52.8812L26.7632 58.3749V30.4596L26.759 30.4554ZM41.1055 34.8545L44.2723 36.655V39.6588L38.5252 36.371L41.1055 34.8545ZM37.0247 44.3003V48.3693L33.5517 46.3348L30.1512 48.2941V36.9934L33.4286 38.8483L37.0332 36.701V40.8788L40.0088 42.5874L37.0247 44.3003ZM36.5188 35.8487L34.0279 37.2942V34.4826L36.5188 32.9996V35.8487ZM32.9609 37.3986L30.1468 35.782V32.7823L32.9609 34.3824V37.3986ZM30.1468 49.4848L33.5731 47.538L36.0386 48.9876L30.1468 52.4843V49.4848ZM41.046 41.9649L38.0917 40.2688V37.3444L43.6177 40.4902L41.046 41.9649ZM33.5858 33.5427L31.0353 32.0637L33.5433 30.6142L36.1192 32.0805L33.5858 33.5427ZM38.0917 45.541L40.5826 47.0283V49.8356L38.0917 48.3903V45.541ZM41.1097 46.1385L38.5083 44.6261L44.7017 40.9957L47.3074 42.5498L41.1097 46.1385ZM47.8771 41.6892L45.3266 40.2144V23.8211L47.8771 22.3172V41.6892ZM44.2723 35.4603L41.1225 33.6471L37.5816 35.736V31.7588L34.5848 30.0083L37.4838 28.3372V24.0761L41.1991 26.2944L44.2893 24.4603L44.2723 35.4603ZM41.1097 21.0305L38.5083 19.5223L45.6624 15.3447L45.3308 15.1524L38.5294 11.2589L40.9524 9.83428L50.7974 15.4366L41.1097 21.0305ZM1.06696 44.3546V16.3097L10.6781 21.937V24.828L3.38366 20.5292V21.6989V42.7712L10.6781 47.045V49.9443L1.05846 44.3629L1.06696 44.3546ZM41.6666 49.9234V47.024L48.961 42.7462V21.6822V20.5125L41.6666 24.8113V21.9203L51.2777 16.2929V44.342L41.6666 49.9234Z" fill="white"/>
</svg>
